<?xml version="1.0" encoding="utf-8"?>
<!-- Generator: Adobe Illustrator 22.1.0, SVG Export Plug-In . SVG Version: 6.00 Build 0)  -->
<svg version="1.1" id="Layer_1" xmlns="http://www.w3.org/2000/svg" xmlns:xlink="http://www.w3.org/1999/xlink" x="0px" y="0px"
	 viewBox="0 0 612 612" style="enable-background:new 0 0 612 612;" xml:space="preserve">
<style type="text/css">
	.st0{fill-rule:evenodd;clip-rule:evenodd;fill:#F4DD38;stroke:#808080;stroke-miterlimit:10;}
	.st1{fill-rule:evenodd;clip-rule:evenodd;fill:#61A9DD;stroke:#808080;stroke-miterlimit:10;}
	.st2{fill-rule:evenodd;clip-rule:evenodd;fill:#7DBDE7;}
	.st3{fill-rule:evenodd;clip-rule:evenodd;fill:#FFFFFF;}
	.st4{fill-rule:evenodd;clip-rule:evenodd;fill:#808080;}
</style>
<g inkscape:version="0.48.1 r9760" sodipodi:docname="twitter_bootstrap_logo.svg" xmlns:cc="http://creativecommons.org/ns#" xmlns:dc="http://purl.org/dc/elements/1.1/" xmlns:inkscape="http://www.inkscape.org/namespaces/inkscape" xmlns:rdf="http://www.w3.org/1999/02/22-rdf-syntax-ns#" xmlns:sodipodi="http://sodipodi.sourceforge.net/DTD/sodipodi-0.dtd" xmlns:svg="http://www.w3.org/2000/svg">
	<path class="st0" d="M314.6,118.3c-103.6,0-187.7,84-187.7,187.7c0,103.6,84,187.7,187.7,187.7s187.7-84,187.7-187.7
		C502.2,202.4,418.2,118.3,314.6,118.3L314.6,118.3z M314.6,145.7c88.5,0,160.3,71.7,160.3,160.3c0,88.5-71.7,160.3-160.3,160.3
		c-88.5,0-160.3-71.7-160.3-160.3C154.3,217.5,226.1,145.7,314.6,145.7L314.6,145.7z"/>
	<path class="st1" d="M314.6,166.3c77.2,0,139.7,62.5,139.7,139.7c0,77.2-62.5,139.7-139.7,139.7c-77.2,0-139.7-62.5-139.7-139.7
		C174.9,228.8,237.4,166.3,314.6,166.3L314.6,166.3z"/>
	<path class="st2" d="M305.9,178c62.2,0,112.7,50.4,112.7,112.7s-50.4,112.7-112.7,112.7c-62.2,0-112.7-50.4-112.7-112.7
		C193.2,228.5,243.7,178,305.9,178L305.9,178z"/>
	<path class="st3" d="M230.5,222.1c-24.9,27.8-36.3,55.1-37,80.5c-0.4,14.9-1.7,17.4,2,36c3.5,17.7,28.3,21.3,23.5-10.3
		c-1.8-11.5-0.7-18.8,0.3-29.9c1.5-16.3,12.6-37.7,27.3-52.4C268.7,224,243.9,207.2,230.5,222.1L230.5,222.1z"/>
	<path class="st3" d="M271.8,222.4c7.6,4.1,17.2,1.1,21.4-6.8c4.3-7.9,1.7-17.6-5.9-21.7c-7.5-4.1-17.2-1.1-21.4,6.8
		C261.6,208.6,264.2,218.3,271.8,222.4L271.8,222.4z"/>
	<path class="st4" d="M10,130.3v351.4c0,11.9,1.3,25.3,8.7,35.1c9.4,12.5,25.4,15.1,40,14.8h58.4c26.7,0,26.3-35.9,0.4-35.9H58.1
		c-2.5,0-8.3-0.2-10.2-2.4c-2.4-2.8-2-13.6-2-17.1V135.7c0-3.5-0.4-14.3,2-17.1c1.8-2.2,7.6-2.3,10.1-2.4l59.1,0
		c26.7,0,26.3-35.9,0.4-35.9l-58.6,0C44.2,80,28.2,82.7,18.7,95.2C11.3,105,10,118.3,10,130.3L10,130.3z"/>
	<path class="st1" d="M601.8,130.3v351.4c0,11.9-1.3,25.3-8.7,35.1c-9.4,12.5-25.4,15.1-40,14.8h-58.4c-26.7,0-26.3-35.9-0.4-35.9
		h59.4c2.5,0,8.3-0.2,10.2-2.4c2.4-2.8,2-13.6,2-17.1V135.7c0-3.5,0.4-14.3-2-17.1c-1.8-2.2-7.6-2.3-10.1-2.4l-59.1,0
		c-26.7,0-26.3-35.9-0.4-35.9l58.6,0c14.7-0.3,30.7,2.3,40.1,14.8C600.5,105,601.8,118.3,601.8,130.3L601.8,130.3z"/>
</g>
</svg>
